{"title":"The Great Outdoors (1988) 720p AC3 HDTV no logos","uid":8910084,"size":2094720382,"categoryP":"video","categoryS":"hd___movies","magnet":"?xt=urn:btih:d7de80d991ef391f7ece7c4fa7050b9b54d3482b&amp;dn=The+Great+Outdoors+%281988%29+720p+AC3+HDTV+no+logos&amp;tr=udp%3A%2F%2Ftracker.openbittorrent.com%3A80&amp;tr=udp%3A%2F%2Fopen.demonii.com%3A1337&amp;tr=udp%3A%2F%2Ftracker.coppersurfer.tk%3A6969&amp;tr=udp%3A%2F%2Fexodus.desync.com%3A6969","seeders":4,"leechers":1,"uploader":"nabsltd","files":2,"time":1378999460,"description":"This is my own rip.\n\nThere was a request for this a while back...sorry it took so long, but it wasn't showing on any channel I received.\n\nGeneral\nUnique ID                        : 186102658639509345146110397570087027220 (0x8C02117C2268591C96A080547EC28214)\nFormat                           : Matroska\nFormat version                   : Version 4 / Version 2\nFile size                        : 1.91 GiB\nDuration                         : 1h 30mn\nOverall bit rate mode            : Variable\nOverall bit rate                 : 3 029 Kbps\nEncoded date                     : UTC 2013-09-12 12:02:21\nWriting application              : mkvmerge v6.3.0 ('You can't stop me!') built on Jun 28 2013 20:09:41\nWriting library                  : libebml v1.3.0 + libmatroska v1.4.0\n\nVideo\nID                               : 1\nFormat                           : AVC\nFormat/Info                      : Advanced Video Codec\nFormat profile                   : &lt;a class=&quot;__cf_email__&quot; href=&quot;/cdn-cgi/l/email-protection&quot; data-cfemail=&quot;bbf3d2dcd3fbf78f958a&quot;&gt;[email&amp;#160;protected]&lt;/a&gt;&lt;script cf-hash='f9e31' type=&quot;text/javascript&quot;&gt;\n/* &lt;![CDATA[ */!function(){try{var t=&quot;currentScript&quot;in document?document.currentScript:function(){for(var t=document.getElementsByTagName(&quot;script&quot;),e=t.length;e--;)if(t[e].getAttribute(&quot;cf-hash&quot;))return t[e]}();if(t&amp;&amp;t.previousSibling){var e,r,n,i,c=t.previousSibling,a=c.getAttribute(&quot;data-cfemail&quot;);if(a){for(e=&quot;&quot;,r=parseInt(a.substr(0,2),16),n=2;a.length-n;n+=2)i=parseInt(a.substr(n,2),16)^r,e+=String.fromCharCode(i);e=document.createTextNode(e),c.parentNode.replaceChild(e,c)}}}catch(u){}}();/* ]]&gt; */&lt;/script&gt;\nFormat settings, CABAC           : Yes\nFormat settings, ReFrames        : 7 frames\nCodec ID                         : V_MPEG4/ISO/AVC\nDuration                         : 1h 30mn\nBit rate mode                    : Variable\nBit rate                         : 2 585 Kbps\nMaximum bit rate                 : 10.3 Mbps\nWidth                            : 1 280 pixels\nHeight                           : 692 pixels\nDisplay aspect ratio             : 1.850\nFrame rate                       : 23.976 fps\nColor space                      : YUV\nChroma subsampling               : 4:2:0\nBit depth                        : 8 bits\nScan type                        : Progressive\nBits/(Pixel*Frame)               : 0.122\nStream size                      : 1.63 GiB (85%)\nWriting library                  : x264 core 135 r2345 f0c1c53\nLanguage                         : English\nDefault                          : Yes\nForced                           : No\n\nAudio\nID                               : 2\nFormat                           : AC-3\nFormat/Info                      : Audio Coding 3\nMode extension                   : CM (complete main)\nCodec ID                         : A_AC3\nDuration                         : 1h 30mn\nBit rate mode                    : Constant\nBit rate                         : 384 Kbps\nChannel(s)                       : 2 channels\nChannel positions                : Front: L R\nSampling rate                    : 48.0 KHz\nBit depth                        : 16 bits\nCompression mode                 : Lossy\nStream size                      : 248 MiB (13%)\nLanguage                         : English\nDefault                          : Yes\nForced                           : No\n\nMenu\n00:00:00.000                     : en:Main Titles: The Great Outdoors\n00:02:54.091                     : en:Raman's Holiday\n00:08:33.471                     : en:Family Tensions\n00:14:01.132                     : en:A True Bear Story\n00:22:30.641                     : en:Hell on Water-Skis\n00:31:38.855                     : en:Fun for the Whole Family\n00:39:28.847                     : en:City Boy Meets Local Girl\n00:46:05.012                     : en:Roman Fever\n00:50:16.911                     : en:Bat Plan\n00:55:03.781                     : en:&quot;The Old 96er&quot;\n00:59:35.030                     : en:It All Started to Ooze Out\n01:05:12.242                     : en:There's One Born Every Minute\n01:09:01.471                     : en:Doing the Right Thing\n01:11:53.768                     : en:Double Trouble\n01:18:11.167                     : en:Baring the Bear\n01:24:14.800                     : en:Race Ya Home?\n01:26:23.261                     : en:End Credits\n","torrent":{"xt":"urn:btih:d7de80d991ef391f7ece7c4fa7050b9b54d3482b","amp;dn":"The+Great+Outdoors+%281988%29+720p+AC3+HDTV+no+logos","amp;tr":["udp%3A%2F%2Ftracker.openbittorrent.com%3A80","udp%3A%2F%2Fopen.demonii.com%3A1337","udp%3A%2F%2Ftracker.coppersurfer.tk%3A6969","udp%3A%2F%2Fexodus.desync.com%3A6969"],"infoHash":"d7de80d991ef391f7ece7c4fa7050b9b54d3482b","infoHashBuffer":{"type":"Buffer","data":[215,222,128,217,145,239,57,31,126,206,124,79,167,5,11,155,84,211,72,43]},"announce":[],"urlList":[]}}